<svg width="20" height="18" viewBox="0 0 20 18" fill="none" xmlns="http://www.w3.org/2000/svg">
<path fill-rule="evenodd" clip-rule="evenodd" d="M20 16C20 17.1046 19.1046 18 18 18H2C0.89543 18 0 17.1046 0 16V8.79474L0.080855 8.60608L3.10236 1.55926C3.55303 0.641416 4.12144 0.0730063 5 0H15L15.1308 0.00859397C15.8837 0.107936 16.4351 0.659353 16.9191 1.60608L20 8.79474V16ZM2 10V16H18V10H14C14 11.1046 13.1046 12 12 12H8C6.89543 12 6 11.1046 6 10H2ZM2.51654 8H8V10H12V8H17.484L15.1107 2.45729C14.9987 2.23944 14.8953 2.08654 14.8118 1.99993L5.17592 1.99623C5.0987 2.07946 5.00333 2.22529 4.91915 2.39392L2.51654 8Z" fill="#006CFF"/>
</svg>
